<svg width="466" height="566" viewBox="0 0 466 566" fill="none" xmlns="http://www.w3.org/2000/svg">
<path d="M327.667 562.969L142.629 448.199C141.002 447.191 139.65 445.741 138.71 443.994C137.77 442.246 137.275 440.264 137.275 438.246C137.275 436.228 137.77 434.245 138.71 432.498C139.65 430.751 141.002 429.301 142.629 428.293L160.883 415.928C164.034 413.979 167.606 412.953 171.242 412.953C174.879 412.953 178.451 413.979 181.602 415.928L366.665 530.712C368.292 531.72 369.644 533.17 370.584 534.917C371.524 536.665 372.019 538.647 372.019 540.665C372.019 542.683 371.524 544.665 370.584 546.413C369.644 548.16 368.292 549.61 366.665 550.618L348.411 562.969C345.259 564.929 341.681 565.961 338.039 565.961C334.397 565.961 330.819 564.929 327.667 562.969V562.969Z" fill="#E0E0E0"/>
<path d="M46.3176 458.334C68.4946 458.334 86.4726 447.244 86.4726 433.563C86.4726 419.883 68.4946 408.793 46.3176 408.793C24.1406 408.793 6.1626 419.883 6.1626 433.563C6.1626 447.244 24.1406 458.334 46.3176 458.334Z" fill="#E6E6E6"/>
<path d="M393.285 464.01L410.897 474.888C410.897 474.888 401.902 444.523 406.695 413.915C408.507 402.347 412.394 396.604 413.752 393.51C415.111 390.415 425.64 371.293 416.268 362.537C406.896 353.78 385.095 371.388 386.278 418.51C386.816 433.933 389.17 449.222 393.285 464.01V464.01Z" fill="#5B4040"/>
<path opacity="0.5" d="M393.285 464.01L410.897 474.888C410.897 474.888 401.902 444.523 406.695 413.915C408.507 402.347 412.394 396.604 413.752 393.51C415.111 390.415 425.64 371.293 416.268 362.537C406.896 353.78 385.095 371.388 386.278 418.51C386.816 433.933 389.17 449.222 393.285 464.01V464.01Z" fill="black"/>
<path d="M401.476 469.74C401.348 469.743 401.222 469.703 401.116 469.625C401.01 469.548 400.929 469.437 400.885 469.307C400.822 469.105 394.092 449.348 394.306 417.591C394.519 385.834 410.056 368.591 410.206 368.429C410.265 368.366 410.335 368.315 410.411 368.281C410.488 368.247 410.57 368.229 410.653 368.229C410.736 368.229 410.818 368.247 410.895 368.281C410.972 368.315 411.041 368.366 411.1 368.429C411.159 368.492 411.205 368.566 411.237 368.649C411.269 368.731 411.286 368.819 411.286 368.909C411.286 368.998 411.269 369.086 411.237 369.168C411.205 369.251 411.159 369.325 411.1 369.388C410.949 369.55 395.777 386.28 395.564 417.605C395.35 448.929 401.992 468.659 402.067 468.848C402.124 469.016 402.116 469.202 402.045 469.364C401.974 469.527 401.847 469.652 401.69 469.713C401.621 469.736 401.548 469.745 401.476 469.74V469.74Z" fill="white"/>
<path d="M400.633 468.658L424.711 483.523C427.22 485.116 430.195 485.635 433.044 484.977C435.894 484.318 438.407 482.53 440.083 479.969C441.677 477.305 442.35 474.125 441.983 470.983C440.826 457.55 435.391 454.456 442.046 448.469C448.701 442.483 450.437 442.064 450.059 436.307C449.682 430.55 446.021 428.037 444.285 425.766C442.549 423.496 437.744 418.739 441.014 411.712C444.285 404.685 448.751 397.888 441.983 394.78C437.945 392.915 431.215 395.401 426.787 400.564C422.358 405.726 418.71 409.442 414.471 410.685C410.231 411.929 401.4 412.131 401.778 419.983C402.155 427.834 404.092 430.523 402.356 434.023C399.086 440.564 384.858 444.28 400.633 468.658Z" fill="#5B4040"/>
<path d="M412.533 476.659C412.376 476.653 412.227 476.588 412.111 476.473C411.996 476.359 411.922 476.205 411.904 476.037C411.904 475.578 408.206 429.199 437.894 398.334C438.017 398.226 438.173 398.171 438.331 398.181C438.49 398.191 438.639 398.265 438.749 398.388C438.859 398.511 438.921 398.674 438.924 398.845C438.926 399.015 438.868 399.18 438.762 399.307C409.501 429.726 413.124 475.456 413.162 475.915C413.176 476.093 413.125 476.269 413.019 476.405C412.913 476.542 412.761 476.628 412.596 476.645L412.533 476.659Z" fill="white"/>
<path d="M417.3 436.739C417.141 436.74 416.988 436.676 416.872 436.561C416.755 436.446 416.683 436.287 416.671 436.118C416.407 432.524 415.465 429.025 413.901 425.835C412.337 422.645 410.185 419.831 407.575 417.564C407.507 417.512 407.449 417.447 407.405 417.372C407.361 417.297 407.33 417.212 407.316 417.125C407.302 417.037 407.305 416.946 407.323 416.859C407.342 416.773 407.376 416.69 407.424 416.618C407.471 416.545 407.531 416.483 407.6 416.436C407.669 416.388 407.746 416.356 407.827 416.341C407.908 416.326 407.99 416.328 408.07 416.348C408.15 416.367 408.226 416.404 408.292 416.456C411.073 418.825 413.366 421.788 415.025 425.159C416.684 428.53 417.672 432.234 417.929 436.037C417.943 436.217 417.89 436.397 417.781 436.536C417.673 436.675 417.518 436.763 417.35 436.78L417.3 436.739Z" fill="white"/>
<path d="M415.251 444.699C415.099 444.701 414.951 444.643 414.835 444.537C414.711 444.418 414.634 444.25 414.622 444.071C414.611 443.892 414.665 443.715 414.773 443.578C415.074 443.199 422.509 434.389 439.932 436.726C440.097 436.75 440.247 436.843 440.348 436.985C440.45 437.127 440.495 437.306 440.473 437.483C440.451 437.661 440.365 437.823 440.234 437.934C440.102 438.045 439.935 438.097 439.769 438.078C423.038 435.821 415.779 444.389 415.703 444.47C415.646 444.539 415.577 444.594 415.499 444.634C415.421 444.673 415.337 444.696 415.251 444.699V444.699Z" fill="white"/>
<path d="M322.032 549.253L159.298 448.321C147.813 441.199 138.504 422.091 138.504 405.645V31.3198C138.504 14.8738 147.813 7.31972 159.298 14.4414L322.032 115.374C333.517 122.496 342.827 141.604 342.827 158.05V532.375C342.827 548.807 333.517 556.375 322.032 549.253Z" fill="#455A64"/>
<path d="M340.776 103.604L178.03 2.6709C173.124 -0.369648 168.62 -0.721001 165.06 1.14387C164.624 1.37834 164.204 1.64473 163.802 1.94117L145.561 13.3331C149.234 10.9682 154.04 11.1439 159.311 14.4142L322.044 115.347C333.53 122.468 342.839 141.577 342.839 158.023V532.348C342.839 541.05 340.235 547.213 336.083 550.132L354.085 538.875C358.677 536.253 361.633 529.834 361.633 520.632V146.306C361.633 129.833 352.261 110.725 340.776 103.604Z" fill="#37474F"/>
<path d="M342.826 158.023V532.348C342.826 541.05 340.222 547.213 336.071 550.132L354.085 538.875C358.677 536.253 361.633 529.834 361.633 520.632V146.306L342.889 157.996L342.826 158.023Z" fill="#263238"/>
<path d="M361.569 175.347L342.824 186.969V196.05L361.569 184.415V175.347Z" fill="#37474F"/>
<path d="M353.355 235.739C351.682 236.779 350.323 235.671 350.323 233.279V213.752C350.34 212.532 350.623 211.332 351.15 210.25C351.676 209.168 352.431 208.234 353.355 207.523V207.523C355.028 206.482 356.386 207.523 356.386 209.982V229.509C356.369 230.73 356.086 231.929 355.56 233.011C355.033 234.093 354.278 235.027 353.355 235.739V235.739Z" fill="#37474F"/>
<path d="M350.31 233.334V213.753C350.327 212.532 350.611 211.333 351.137 210.251C351.664 209.169 352.419 208.235 353.342 207.523C353.618 207.316 353.94 207.189 354.275 207.156C354.61 207.123 354.948 207.184 355.254 207.334L352.977 206.077C352.666 205.916 352.321 205.846 351.976 205.875C351.631 205.903 351.3 206.029 351.015 206.239C350.091 206.951 349.334 207.885 348.805 208.966C348.277 210.048 347.991 211.247 347.971 212.469V231.982C347.923 232.475 347.993 232.973 348.174 233.429C348.354 233.885 348.639 234.285 349.002 234.591V234.591L351.38 235.942C351.001 235.649 350.703 235.253 350.515 234.794C350.327 234.336 350.256 233.831 350.31 233.334V233.334Z" fill="#455A64"/>
<path d="M353.355 282.996C351.682 284.036 350.323 282.996 350.323 280.536V261.009C350.341 259.789 350.624 258.59 351.151 257.508C351.677 256.426 352.432 255.492 353.355 254.78V254.78C355.028 253.739 356.386 254.78 356.386 257.253V276.766C356.371 277.987 356.089 279.187 355.563 280.27C355.036 281.352 354.28 282.286 353.355 282.996V282.996Z" fill="#37474F"/>
<path d="M350.311 280.536V261.009C350.329 259.789 350.613 258.59 351.139 257.508C351.665 256.426 352.42 255.492 353.343 254.779C353.62 254.576 353.942 254.451 354.276 254.418C354.611 254.385 354.948 254.444 355.255 254.59V254.59L352.978 253.32C352.668 253.152 352.322 253.078 351.976 253.107C351.63 253.135 351.298 253.265 351.016 253.482C350.089 254.191 349.331 255.125 348.802 256.207C348.273 257.289 347.989 258.49 347.971 259.712V279.279C347.923 279.772 347.992 280.271 348.173 280.727C348.353 281.183 348.639 281.583 349.003 281.887V281.887L351.38 283.239C350.986 282.939 350.678 282.528 350.489 282.05C350.3 281.573 350.239 281.049 350.311 280.536Z" fill="#455A64"/>
<path d="M316.346 125.874L156.431 26.6572C155.763 26.2447 155.007 26.0269 154.237 26.0254C153.467 26.0239 152.71 26.2386 152.041 26.6484C151.372 27.0582 150.815 27.6487 150.424 28.3614C150.033 29.0741 149.823 29.8842 149.813 30.7112V405.645C149.813 418.158 158.078 433.523 168.168 439.78L324.158 536.577C324.898 537.034 325.737 537.275 326.59 537.274C327.444 537.273 328.282 537.031 329.021 536.573C329.76 536.114 330.374 535.455 330.801 534.661C331.228 533.867 331.454 532.967 331.455 532.05V154.022C331.517 143.698 324.699 131.036 316.346 125.874Z" fill="#5B4040"/>
<path opacity="0.9" d="M316.346 125.874L156.431 26.6572C155.763 26.2447 155.007 26.0269 154.237 26.0254C153.467 26.0239 152.71 26.2386 152.041 26.6484C151.372 27.0582 150.815 27.6487 150.424 28.3614C150.033 29.0741 149.823 29.8842 149.813 30.7112V405.645C149.813 418.158 158.078 433.523 168.168 439.78L324.158 536.577C324.898 537.034 325.737 537.275 326.59 537.274C327.444 537.273 328.282 537.031 329.021 536.573C329.76 536.114 330.374 535.455 330.801 534.661C331.228 533.867 331.454 532.967 331.455 532.05V154.022C331.517 143.698 324.699 131.036 316.346 125.874Z" fill="white"/>
<path d="M204.259 52.563L206.737 63.7657L259.748 96.6036L268.907 91.3604L204.259 52.563Z" fill="#455A64"/>
<path d="M219.845 63.3871C219.845 65.252 218.587 65.9952 217.128 65.0763C216.344 64.5176 215.694 63.7693 215.228 62.8916C214.763 62.0138 214.496 61.0311 214.448 60.0222C214.448 58.1709 215.706 57.4141 217.166 58.3466C217.949 58.9024 218.599 59.6481 219.065 60.5237C219.53 61.3993 219.797 62.3801 219.845 63.3871V63.3871Z" fill="#263238"/>
<path d="M255.561 87.1037C255.271 87.1012 254.986 87.0223 254.731 86.8739L227.659 70.6577C227.277 70.4165 226.998 70.0244 226.881 69.5651C226.764 69.1057 226.819 68.6155 227.034 68.1992C227.249 67.7829 227.607 67.4734 228.032 67.3369C228.457 67.2003 228.914 67.2476 229.307 67.4685L256.392 83.6847C256.721 83.8813 256.98 84.1899 257.128 84.5619C257.276 84.9339 257.305 85.3483 257.21 85.7398C257.115 86.1314 256.901 86.4778 256.603 86.7247C256.304 86.9716 255.938 87.1049 255.561 87.1037V87.1037Z" fill="#263238"/>
<path d="M183.351 104.684C181.703 103.657 180.508 104.549 180.508 106.806C180.508 107.935 180.768 109.046 181.264 110.041C181.76 111.035 182.477 111.883 183.351 112.509C183.82 112.814 184.357 112.976 184.905 112.976C185.453 112.976 185.99 112.814 186.458 112.509L189.088 117.617C188.163 118.165 187.114 118.426 186.059 118.372C185.004 118.317 183.984 117.948 183.112 117.306C180.976 115.902 179.195 113.954 177.927 111.635C176.659 109.316 175.942 106.696 175.841 104.009C175.841 98.9952 178.973 97.252 183.288 99.9547C185.725 101.64 187.721 103.966 189.088 106.711L186.458 108.955C185.81 107.25 184.735 105.772 183.351 104.684Z" fill="#5B4040"/>
<path d="M204.22 121.617C204.22 126.671 201.037 128.374 196.672 125.671C194.475 124.261 192.637 122.289 191.32 119.932C190.003 117.574 189.249 114.904 189.124 112.158C189.124 107.103 192.307 105.401 196.672 108.103C198.874 109.507 200.717 111.477 202.035 113.836C203.352 116.195 204.103 118.869 204.22 121.617V121.617ZM193.791 115.171C193.813 116.331 194.092 117.469 194.604 118.491C195.115 119.513 195.846 120.39 196.735 121.049C198.295 122.022 199.553 121.049 199.553 118.752C199.549 117.618 199.29 116.502 198.8 115.497C198.31 114.493 197.601 113.63 196.735 112.982C195.15 111.995 193.791 112.833 193.791 115.171Z" fill="#5B4040"/>
<path d="M209.29 116.252L214.725 128.415V119.658L218.838 122.212V139.253L215.064 136.901L209.655 124.847V133.55L205.516 130.982V113.901L209.29 116.252Z" fill="#5B4040"/>
<path d="M232.287 130.509V134.969L228.362 132.536V145.131L223.821 142.306V129.712L219.921 127.293V122.847L232.287 130.509Z" fill="#5B4040"/>
<path d="M241.144 150.644L235.986 147.441L235.282 149.414L230.627 146.522L236.427 133.076L241.094 135.968L246.679 156.482L241.836 153.482L241.144 150.644ZM240.025 145.914L238.616 140.09L237.169 144.144L240.025 145.914Z" fill="#5B4040"/>
<path d="M253.886 148.428C252.238 147.414 251.043 148.293 251.043 150.563C251.046 151.691 251.306 152.801 251.802 153.796C252.298 154.79 253.014 155.638 253.886 156.266C254.358 156.568 254.897 156.728 255.446 156.728C255.996 156.728 256.535 156.568 257.006 156.266L259.635 161.374C258.706 161.916 257.657 162.173 256.601 162.119C255.545 162.064 254.523 161.699 253.647 161.063C251.51 159.658 249.728 157.708 248.459 155.386C247.191 153.064 246.475 150.442 246.376 147.752C246.376 142.739 249.521 140.995 253.823 143.698C256.257 145.392 258.256 147.715 259.635 150.455L257.006 152.685C256.343 150.989 255.265 149.518 253.886 148.428Z" fill="#5B4040"/>
<path d="M272.039 155.172V159.617L268.114 157.185V169.82L263.573 166.996V154.401L259.673 151.982V147.536L272.039 155.172Z" fill="#5B4040"/>
<path d="M285.463 176.09C286.582 176.779 287.438 176.239 287.438 174.549V164.725L291.991 167.536V177.36C291.991 181.887 289.476 183.239 285.45 180.766C283.511 179.609 281.88 177.936 280.715 175.908C279.55 173.881 278.889 171.565 278.795 169.184V159.36L283.349 162.184V172.009C283.367 172.822 283.568 173.619 283.936 174.33C284.305 175.041 284.828 175.645 285.463 176.09V176.09Z" fill="#5B4040"/>
<path d="M299.324 176.144C298.808 175.833 298.481 175.82 298.481 176.333C298.481 178.469 305.589 181.55 305.589 187.725C305.589 191.509 302.909 191.523 299.815 189.604C297.094 187.813 294.751 185.434 292.934 182.617L294.619 179.428C296.002 181.729 297.778 183.728 299.853 185.32C300.519 185.739 300.947 185.739 300.947 185.131C300.947 182.914 293.827 179.969 293.827 173.982C293.827 170.577 296.141 169.928 299.714 172.09C302.016 173.585 304.041 175.523 305.69 177.806L304.042 181.077C302.68 179.214 301.094 177.556 299.324 176.144V176.144Z" fill="#5B4040"/>
<path d="M160.47 188.658C165.574 181.924 168.143 173.379 167.671 164.71C167.198 156.041 163.718 147.876 157.917 141.828C152.116 135.779 144.416 132.286 136.335 132.037C128.254 131.788 120.38 134.801 114.266 140.482C108.152 146.163 104.242 154.1 103.307 162.726C102.373 171.352 104.482 180.041 109.218 187.078C113.954 194.116 120.974 198.991 128.892 200.742C136.81 202.493 145.052 200.993 151.991 196.537L167.741 203.888L160.47 188.658Z" fill="#5B4040"/>
<path opacity="0.4" d="M160.47 188.658C165.574 181.924 168.143 173.379 167.671 164.71C167.198 156.041 163.718 147.876 157.917 141.828C152.116 135.779 144.416 132.286 136.335 132.037C128.254 131.788 120.38 134.801 114.266 140.482C108.152 146.163 104.242 154.1 103.307 162.726C102.373 171.352 104.482 180.041 109.218 187.078C113.954 194.116 120.974 198.991 128.892 200.742C136.81 202.493 145.052 200.993 151.991 196.537L167.741 203.888L160.47 188.658Z" fill="black"/>
<path d="M123.435 164.874C123.435 164.347 123.082 164.05 122.441 164.05C120.953 164.259 119.563 164.963 118.466 166.063L116.679 162.333C118.56 160.814 120.831 159.955 123.183 159.874C126.202 159.874 128.492 161.577 128.492 164.117C128.492 165.928 127.234 167.671 125.623 169.415L123.372 171.806H128.693V175.779H117.258V172.523L122.353 166.861C122.901 166.339 123.28 165.643 123.435 164.874V164.874Z" fill="white"/>
<path d="M138.003 160.104L134.531 169.05H135.952V166.037H140.33V169.05H141.991V172.739H140.33V175.78H135.952V172.739H129.725V169.388L133.499 160.104H138.003Z" fill="white"/>
<path d="M155.5 167.983V175.78H150.821V169.429C150.848 169.222 150.833 169.011 150.778 168.811C150.722 168.611 150.628 168.426 150.5 168.268C150.373 168.11 150.215 167.984 150.038 167.898C149.861 167.811 149.669 167.766 149.475 167.766C148.556 167.766 147.978 168.537 147.978 169.726V175.78H143.298V159.212H147.978V165.307C148.344 164.685 148.854 164.177 149.458 163.831C150.062 163.485 150.74 163.314 151.424 163.334C151.985 163.319 152.543 163.43 153.061 163.662C153.579 163.894 154.045 164.241 154.43 164.679C154.815 165.118 155.109 165.639 155.293 166.208C155.478 166.778 155.548 167.382 155.5 167.983V167.983Z" fill="white"/>
<path d="M308.094 293.55V461.456C308.097 463.355 307.633 465.221 306.751 466.867C305.869 468.513 304.599 469.88 303.068 470.83C301.538 471.781 299.802 472.282 298.034 472.283C296.266 472.283 294.529 471.784 292.998 470.834L208.813 418.618L193.894 409.375C188.756 406.184 184.488 401.6 181.517 396.082C178.545 390.563 176.975 384.304 176.961 377.929V210.009C176.959 208.11 177.422 206.244 178.304 204.598C179.186 202.953 180.456 201.586 181.987 200.635C183.517 199.684 185.254 199.183 187.021 199.183C188.789 199.182 190.526 199.681 192.057 200.631L291.187 262.104C296.326 265.29 300.595 269.874 303.563 275.394C306.531 280.914 308.093 287.176 308.094 293.55V293.55Z" fill="#5B4040"/>
<path opacity="0.5" d="M308.094 293.55V461.456C308.097 463.355 307.633 465.221 306.751 466.867C305.869 468.513 304.599 469.88 303.068 470.83C301.538 471.781 299.802 472.282 298.034 472.283C296.266 472.283 294.529 471.784 292.998 470.834L208.813 418.618L193.894 409.375C188.756 406.184 184.488 401.6 181.517 396.082C178.545 390.563 176.975 384.304 176.961 377.929V210.009C176.959 208.11 177.422 206.244 178.304 204.598C179.186 202.953 180.456 201.586 181.987 200.635C183.517 199.684 185.254 199.183 187.021 199.183C188.789 199.182 190.526 199.681 192.057 200.631L291.187 262.104C296.326 265.29 300.595 269.874 303.563 275.394C306.531 280.914 308.093 287.176 308.094 293.55V293.55Z" fill="white"/>
<path d="M259.598 392.901C259.598 392.901 275.36 420.983 263.975 452.645L208.775 418.618L259.598 392.901Z" fill="#263238"/>
<path d="M284.736 266.735C285.929 256.328 279.042 246.852 269.354 245.571C259.666 244.289 250.845 251.687 249.652 262.095C248.459 272.502 255.345 281.978 265.034 283.259C274.722 284.541 283.543 277.143 284.736 266.735Z" fill="#263238"/>
<path d="M267.284 211.158C267.284 211.158 272.706 201.698 274.367 202.387C276.027 203.077 273.285 212.09 273.285 212.09C273.285 212.09 281.487 213.928 279.965 216.144C278.443 218.36 268.417 217.833 268.417 217.833L267.284 211.158Z" fill="#263238"/>
<path d="M271.059 235.536C267.285 265.996 243.383 265.996 243.383 265.996L193.315 242.32C193.315 242.32 189.541 238.766 188.384 230.604C187.94 227.26 187.94 223.866 188.384 220.522C188.384 220.522 188.384 220.455 188.384 220.428C189.981 207.617 198.901 193.847 218.324 189.617C222.58 188.694 226.914 188.241 231.256 188.266C233.357 188.258 235.456 188.37 237.546 188.603C252.642 190.198 263.221 197.766 268.266 209.536C269.401 212.193 270.245 214.981 270.782 217.847C271.806 223.684 271.899 229.665 271.059 235.536Z" fill="#263238"/>
<path d="M150.857 294.456C150.857 294.456 133.082 293.793 126.238 312.402C126.238 312.402 133.786 317.875 143.687 312.402C153.587 306.929 150.857 294.456 150.857 294.456Z" fill="#5B4040"/>
<path opacity="0.5" d="M150.857 294.456C150.857 294.456 133.082 293.793 126.238 312.402C126.238 312.402 133.786 317.875 143.687 312.402C153.587 306.929 150.857 294.456 150.857 294.456Z" fill="black"/>
<path d="M150.355 303.415C150.355 303.415 145.323 279.928 142.668 279.644C140.014 279.361 139.498 286.807 139.712 291.009L133.422 276.469C133.222 276.017 132.939 275.614 132.589 275.284C132.239 274.955 131.829 274.705 131.386 274.552C130.943 274.399 130.475 274.345 130.012 274.393C129.549 274.442 129.099 274.592 128.692 274.834C122.402 278.55 111.369 289.847 134.63 317.78L150.355 303.415Z" fill="#945959"/>
<path d="M214.762 287.171L210.988 286.644C207.185 286.103 203.316 286.658 199.778 288.254C196.241 289.85 193.163 292.429 190.86 295.725L168.405 327.834L150.793 294.455C150.793 294.455 148.68 317.158 126.175 312.401L150.341 356.09C151.87 358.856 153.999 361.184 156.545 362.877C159.092 364.569 161.982 365.575 164.969 365.81C167.955 366.045 170.951 365.501 173.7 364.226C176.449 362.95 178.871 360.979 180.759 358.482L201.44 331.171L214.762 287.171Z" fill="#5B4040"/>
<path d="M262.693 362.104C257.661 375.807 257.107 378.483 260.177 385.334C262.314 390.394 263.999 395.661 265.209 401.064C265.209 401.064 241.886 429.145 208.687 418.631L193.767 409.388C190.665 407.466 187.87 405.02 185.49 402.145L190.031 365.766C190.26 363.851 190.079 361.906 189.503 360.077L184.735 345.063C182.409 337.731 182.062 329.84 183.736 322.304C185.411 314.769 189.037 307.896 194.195 302.482L210.222 285.658L252.314 291.442L258.604 293.374C262.722 294.653 266.272 297.486 268.601 301.351C270.931 305.217 271.884 309.855 271.285 314.415C269.222 330.361 265.85 353.496 262.693 362.104Z" fill="#5B4040"/>
<path opacity="0.5" d="M262.693 362.104C257.661 375.807 257.107 378.483 260.177 385.334C262.314 390.394 263.999 395.661 265.209 401.064C265.209 401.064 241.886 429.145 208.687 418.631L193.767 409.388C190.665 407.466 187.87 405.02 185.49 402.145L190.031 365.766C190.26 363.851 190.079 361.906 189.503 360.077L184.735 345.063C182.409 337.731 182.062 329.84 183.736 322.304C185.411 314.769 189.037 307.896 194.195 302.482L210.222 285.658L252.314 291.442L258.604 293.374C262.722 294.653 266.272 297.486 268.601 301.351C270.931 305.217 271.884 309.855 271.285 314.415C269.222 330.361 265.85 353.496 262.693 362.104Z" fill="black"/>
<path d="M237.307 321.171L228.878 313.455C227.986 312.635 226.909 312.079 225.756 311.842C224.602 311.605 223.41 311.695 222.299 312.104L212.109 315.874L210.738 309.739C210.524 308.784 210.132 307.886 209.586 307.099C209.041 306.312 208.352 305.651 207.562 305.157C206.772 304.663 205.897 304.347 204.99 304.226C204.083 304.105 203.163 304.183 202.284 304.455L197.869 305.807L205.341 290.428C207.781 285.42 211.539 281.293 216.147 278.563L219.079 276.833L243.295 278.185C243.295 278.185 252.315 282.239 252.315 291.361L237.307 321.09" fill="#5B4040"/>
<path d="M243.396 289.712L219.116 310.036V245.32H243.396V289.712Z" fill="#945959"/>
<path d="M219.493 284.375L212.109 315.929L243.294 289.712L219.493 284.375Z" fill="#945959"/>
<path d="M219.115 279.685C224.514 277.531 229.449 274.222 233.62 269.957C237.792 265.691 241.113 260.56 243.382 254.874V245.32H219.103L219.115 279.685Z" fill="#703838"/>
<path d="M224.35 197.361C215.141 197.361 195.567 202.874 193.302 228.766C191.038 254.658 193.227 274.712 205.656 276.658C218.085 278.604 246.968 268.915 250.843 235.401C254.717 201.888 233.319 197.361 224.35 197.361Z" fill="#945959"/>
<path d="M209.858 239.725V254.982L201.53 252.239L209.858 239.725Z" fill="#703838"/>
<path d="M219.116 245.469C220.714 245.469 222.009 244.077 222.009 242.361C222.009 240.644 220.714 239.252 219.116 239.252C217.518 239.252 216.223 240.644 216.223 242.361C216.223 244.077 217.518 245.469 219.116 245.469Z" fill="#263238"/>
<path d="M202.964 240.199C202.962 240.813 202.79 241.412 202.47 241.922C202.151 242.431 201.698 242.827 201.169 243.06C200.64 243.294 200.059 243.353 199.499 243.232C198.938 243.11 198.424 242.813 198.021 242.378C197.617 241.943 197.343 241.389 197.232 240.786C197.122 240.184 197.18 239.56 197.399 238.992C197.618 238.425 197.989 237.941 198.465 237.6C198.94 237.259 199.499 237.077 200.071 237.077C200.452 237.077 200.829 237.158 201.181 237.315C201.533 237.472 201.852 237.702 202.121 237.992C202.39 238.282 202.603 238.626 202.748 239.005C202.892 239.384 202.966 239.789 202.964 240.199V240.199Z" fill="#263238"/>
<path d="M196.537 233.712L202.198 230.104C202.198 230.104 200.034 227.685 197.87 229.131C195.706 230.577 196.537 233.712 196.537 233.712Z" fill="#263238"/>
<path d="M205.946 261.171C208.703 261.388 211.447 260.597 213.733 258.928C213.733 258.928 214.274 263.347 210.827 264.185C207.38 265.023 205.946 261.171 205.946 261.171Z" fill="#703838"/>
<path d="M201 206.171C201 206.171 204.459 241.915 249.709 243.036C249.709 243.036 263.383 207.509 236.362 195.969C209.34 184.428 201 206.171 201 206.171Z" fill="#263238"/>
<path d="M263.034 237.685L257.473 234.226C255.36 232.874 252.441 233.063 249.208 235.063C242.793 239.036 237.584 248.726 237.584 256.685C237.584 260.672 238.842 263.442 241.006 264.793L246.466 268.172L246.78 268.361L246.969 268.482C249.032 269.564 251.787 269.307 254.819 267.428C261.235 263.374 266.443 253.766 266.443 245.807C266.405 241.78 265.109 238.996 263.034 237.685Z" fill="#5B4040"/>
<path d="M262.99 258.039C267.526 249.598 267.526 240.474 262.99 237.66C258.453 234.847 251.097 239.409 246.561 247.85C242.024 256.291 242.024 265.415 246.56 268.229C251.097 271.043 258.453 266.481 262.99 258.039Z" fill="#5B4040"/>
<path opacity="0.5" d="M262.99 258.039C267.526 249.598 267.526 240.474 262.99 237.66C258.453 234.847 251.097 239.409 246.561 247.85C242.024 256.291 242.024 265.415 246.56 268.229C251.097 271.043 258.453 266.481 262.99 258.039Z" fill="black"/>
<path d="M265.259 245.185L261.485 242.82C260.051 241.901 258.051 242.023 255.836 243.388C253.524 245.011 251.599 247.197 250.218 249.767C248.837 252.338 248.038 255.221 247.886 258.185C247.886 260.888 248.779 262.82 250.226 263.712L254 266.023C254.067 266.075 254.138 266.121 254.214 266.158L254.339 266.239C255.224 266.599 256.177 266.721 257.116 266.594C258.055 266.467 258.95 266.094 259.724 265.509C262.035 263.887 263.959 261.704 265.34 259.136C266.721 256.567 267.52 253.687 267.674 250.725C267.574 247.982 266.693 246.077 265.259 245.185Z" fill="#5B4040"/>
<path d="M267.573 250.698C267.42 253.66 266.62 256.541 265.239 259.109C263.858 261.677 261.934 263.86 259.623 265.482C255.22 268.185 251.66 265.996 251.66 260.55C251.809 257.586 252.608 254.702 253.992 252.133C255.376 249.564 257.305 247.382 259.623 245.766C264.013 243.036 267.573 245.239 267.573 250.698Z" fill="#5B4040"/>
<path opacity="0.3" d="M267.573 250.698C267.42 253.66 266.62 256.541 265.239 259.109C263.858 261.677 261.934 263.86 259.623 265.482C255.22 268.185 251.66 265.996 251.66 260.55C251.809 257.586 252.608 254.702 253.992 252.133C255.376 249.564 257.305 247.382 259.623 245.766C264.013 243.036 267.573 245.239 267.573 250.698Z" fill="black"/>
<path d="M245.761 190.387C242.154 187.395 237.738 185.749 233.181 185.698H232.061C227.447 185.645 222.84 186.097 218.312 187.049C219.142 187.049 219.972 187.049 220.828 187.049H218.312V189.563H220.651C228.715 189.858 236.357 193.509 241.961 199.745C247.564 205.982 250.691 214.314 250.68 222.982V233.617C250.679 234.038 250.761 234.453 250.92 234.838C251.079 235.222 251.311 235.566 251.602 235.847C251.892 236.129 252.235 236.342 252.607 236.472C252.979 236.602 253.372 236.647 253.762 236.604H254.051L256.567 235.766C256.399 235.822 256.226 235.859 256.051 235.874C256.801 235.765 257.488 235.363 257.98 234.744C258.471 234.126 258.734 233.335 258.718 232.522V222.658C258.693 204.806 251.51 195.212 245.761 190.387Z" fill="#5B4040"/>
<path d="M229.922 275.915C228.885 275.915 227.859 275.675 226.916 275.212L219.053 271.307C218.93 271.26 218.818 271.185 218.723 271.089C218.628 270.993 218.553 270.876 218.502 270.747C218.451 270.618 218.426 270.479 218.427 270.338C218.429 270.198 218.458 270.06 218.512 269.932C218.566 269.804 218.645 269.69 218.742 269.597C218.839 269.503 218.954 269.433 219.078 269.389C219.202 269.345 219.333 269.33 219.463 269.344C219.593 269.358 219.719 269.4 219.833 269.469L227.696 273.374C228.698 273.875 229.822 274.027 230.909 273.809C231.996 273.591 232.992 273.014 233.759 272.158L241.307 263.78C241.484 263.59 241.724 263.483 241.974 263.483C242.224 263.483 242.464 263.59 242.64 263.78C242.814 263.972 242.911 264.229 242.911 264.496C242.911 264.764 242.814 265.021 242.64 265.212L235.093 273.591C234.421 274.332 233.616 274.92 232.728 275.319C231.84 275.718 230.885 275.921 229.922 275.915V275.915Z" fill="#5B4040"/>
<path opacity="0.5" d="M229.922 275.915C228.885 275.915 227.859 275.675 226.916 275.212L219.053 271.307C218.93 271.26 218.818 271.185 218.723 271.089C218.628 270.993 218.553 270.876 218.502 270.747C218.451 270.618 218.426 270.479 218.427 270.338C218.429 270.198 218.458 270.06 218.512 269.932C218.566 269.804 218.645 269.69 218.742 269.597C218.839 269.503 218.954 269.433 219.078 269.389C219.202 269.345 219.333 269.33 219.463 269.344C219.593 269.358 219.719 269.4 219.833 269.469L227.696 273.374C228.698 273.875 229.822 274.027 230.909 273.809C231.996 273.591 232.992 273.014 233.759 272.158L241.307 263.78C241.484 263.59 241.724 263.483 241.974 263.483C242.224 263.483 242.464 263.59 242.64 263.78C242.814 263.972 242.911 264.229 242.911 264.496C242.911 264.764 242.814 265.021 242.64 265.212L235.093 273.591C234.421 274.332 233.616 274.92 232.728 275.319C231.84 275.718 230.885 275.921 229.922 275.915V275.915Z" fill="black"/>
<path d="M221.117 268.469C221.117 269.249 220.902 270.012 220.498 270.661C220.094 271.31 219.521 271.816 218.85 272.114C218.178 272.413 217.44 272.491 216.727 272.339C216.015 272.187 215.36 271.811 214.846 271.259C214.333 270.707 213.983 270.004 213.841 269.238C213.699 268.473 213.772 267.68 214.05 266.959C214.328 266.238 214.799 265.621 215.403 265.188C216.007 264.754 216.717 264.523 217.444 264.523C218.418 264.523 219.352 264.938 220.041 265.678C220.73 266.418 221.117 267.422 221.117 268.469V268.469Z" fill="#5B4040"/>
<path opacity="0.5" d="M221.117 268.469C221.117 269.249 220.902 270.012 220.498 270.661C220.094 271.31 219.521 271.816 218.85 272.114C218.178 272.413 217.44 272.491 216.727 272.339C216.015 272.187 215.36 271.811 214.846 271.259C214.333 270.707 213.983 270.004 213.841 269.238C213.699 268.473 213.772 267.68 214.05 266.959C214.328 266.238 214.799 265.621 215.403 265.188C216.007 264.754 216.717 264.523 217.444 264.523C218.418 264.523 219.352 264.938 220.041 265.678C220.73 266.418 221.117 267.422 221.117 268.469V268.469Z" fill="black"/>
<path d="M258.691 222.658V232.523C258.707 233.336 258.444 234.127 257.953 234.745C257.461 235.363 256.774 235.765 256.024 235.874C255.61 235.922 255.191 235.875 254.794 235.737C254.398 235.599 254.033 235.373 253.723 235.073C253.413 234.774 253.166 234.407 252.997 233.998C252.827 233.589 252.74 233.146 252.741 232.699V222.658C252.748 217.866 251.853 213.122 250.108 208.712C248.364 204.301 245.808 200.315 242.592 196.994C239.377 193.672 235.569 191.084 231.398 189.384C227.227 187.684 222.779 186.909 218.322 187.104C222.851 186.152 227.458 185.699 232.072 185.753H233.167C237.723 185.803 242.14 187.449 245.746 190.442C251.508 195.212 258.691 204.807 258.691 222.658Z" fill="#5B4040"/>
<path opacity="0.5" d="M258.691 222.658V232.523C258.707 233.336 258.444 234.127 257.953 234.745C257.461 235.363 256.774 235.765 256.024 235.874C255.61 235.922 255.191 235.875 254.794 235.737C254.398 235.599 254.033 235.373 253.723 235.073C253.413 234.774 253.166 234.407 252.997 233.998C252.827 233.589 252.74 233.146 252.741 232.699V222.658C252.748 217.866 251.853 213.122 250.108 208.712C248.364 204.301 245.808 200.315 242.592 196.994C239.377 193.672 235.569 191.084 231.398 189.384C227.227 187.684 222.779 186.909 218.322 187.104C222.851 186.152 227.458 185.699 232.072 185.753H233.167C237.723 185.803 242.14 187.449 245.746 190.442C251.508 195.212 258.691 204.807 258.691 222.658Z" fill="black"/>
<path d="M244.551 408.563C244.551 408.563 238.462 426.577 260.226 434.685C260.226 434.685 267.333 423.469 260.226 414.293C253.118 405.117 244.551 408.563 244.551 408.563Z" fill="#5B4040"/>
<path opacity="0.7" d="M244.551 408.563C244.551 408.563 238.462 426.577 260.226 434.685C260.226 434.685 267.333 423.469 260.226 414.293C253.118 405.117 244.551 408.563 244.551 408.563Z" fill="black"/>
<path d="M252.189 409.388C252.189 409.388 230.929 417.753 231.042 420.996C231.155 424.24 240.075 422.023 240.075 422.023L236.816 424.321C233.385 426.725 230.728 430.208 229.206 434.294V434.294C228.874 435.195 228.862 436.195 229.173 437.105C229.484 438.015 230.096 438.77 230.891 439.226L238.968 443.821C239.424 444.081 239.924 444.24 240.438 444.288C240.952 444.337 241.47 444.275 241.962 444.105C242.453 443.934 242.908 443.66 243.299 443.298C243.69 442.936 244.009 442.493 244.239 441.996V441.996C244.689 441.041 245.311 440.191 246.069 439.495C246.827 438.799 247.705 438.271 248.654 437.942C253.044 436.375 261.234 431.861 264.517 419.51L252.189 409.388Z" fill="#945959"/>
<path d="M258.567 293.347C258.567 293.347 247.245 300.104 253.258 320.617C259.271 341.131 270.556 372.955 270.556 372.955L244.553 408.564C247.331 408.924 250.007 409.909 252.407 411.455C254.806 413.001 256.875 415.073 258.479 417.537C260.015 420.041 260.975 422.903 261.279 425.884C261.583 428.866 261.222 431.883 260.228 434.685L292.508 390.091C295.493 385.969 297.475 381.114 298.274 375.963C299.074 370.813 298.666 365.529 297.087 360.591L283.249 317.185C281.557 311.883 278.746 307.073 275.036 303.132C271.326 299.191 266.817 296.226 261.863 294.469L258.567 293.347Z" fill="#5B4040"/>
<path d="M67.4533 172.171L17.4231 141.09C16.8474 140.661 16.1813 140.393 15.485 140.311C14.7887 140.228 14.0842 140.333 13.4353 140.617V140.617C13.2985 140.685 13.168 140.766 13.0453 140.86L2.16374 147.711H2.23922C0.86801 148.549 0 150.495 0 153.279V213.063C0 218.117 2.85564 223.995 6.39058 226.185L56.4208 257.266C57.0556 257.759 57.8112 258.041 58.5939 258.077C59.3766 258.113 60.152 257.901 60.8237 257.468C60.7897 257.483 60.7595 257.506 60.7357 257.536L71.5418 250.779C72.9507 249.968 73.8439 247.995 73.8439 245.171V185.293C73.8439 180.238 71.0386 174.36 67.4533 172.171Z" fill="#5B4040"/>
<path d="M72.0567 177.833C71.0446 175.521 69.4495 173.559 67.4525 172.171L17.4223 141.09C16.8465 140.661 16.1804 140.393 15.4841 140.311C14.7878 140.228 14.0834 140.333 13.4344 140.617V140.617C13.2977 140.685 13.1671 140.766 13.0445 140.86L2.16284 147.711C2.82848 147.346 3.57486 147.184 4.32036 147.244C5.06585 147.303 5.78173 147.582 6.38969 148.049L56.4199 179.13C58.4849 180.581 60.1215 182.634 61.1374 185.049L72.0567 177.833Z" fill="#5B4040"/>
<path d="M62.8118 252.009C62.8118 254.712 62.0067 256.59 60.7361 257.415L71.5422 250.658C72.9512 249.847 73.8443 247.874 73.8443 245.05V185.293C73.7911 182.692 73.1798 180.139 72.058 177.833L61.1386 185.05C62.187 187.288 62.7586 189.748 62.8118 192.252V252.009Z" fill="#5B4040"/>
<path opacity="0.3" d="M72.0567 177.833C71.0446 175.521 69.4495 173.559 67.4525 172.171L17.4223 141.09C16.8465 140.661 16.1804 140.393 15.4841 140.311C14.7878 140.228 14.0834 140.333 13.4344 140.617V140.617C13.2977 140.685 13.1671 140.766 13.0445 140.86L2.16284 147.711C2.82848 147.346 3.57486 147.184 4.32036 147.244C5.06585 147.303 5.78173 147.582 6.38969 148.049L56.4199 179.13C58.4849 180.581 60.1215 182.634 61.1374 185.049L72.0567 177.833Z" fill="black"/>
<path opacity="0.6" d="M62.8118 252.009C62.8118 254.712 62.0067 256.59 60.7361 257.415L71.5422 250.658C72.9512 249.847 73.8443 247.874 73.8443 245.05V185.293C73.7911 182.692 73.1798 180.139 72.058 177.833L61.1386 185.05C62.187 187.288 62.7586 189.748 62.8118 192.252V252.009Z" fill="black"/>
<path d="M48.1436 209.374C48.1436 217.117 45.288 219.752 41.0108 217.09C39.8309 216.368 38.7991 215.398 37.9776 214.237C37.1561 213.075 36.5618 211.748 36.2304 210.333C34.9725 211.995 33.0226 212.104 30.2802 210.401C25.7765 207.604 22.229 200.941 22.229 194.468C22.229 187.995 25.7388 185.766 30.2802 188.576C32.5846 190.035 34.446 192.18 35.6392 194.752V192.198L40.3818 195.144V209.144C40.3112 209.881 40.4298 210.624 40.7247 211.294C41.0197 211.963 41.4798 212.533 42.0549 212.941C43.6526 213.941 44.6338 212.252 44.6338 207.239C44.6338 198.468 39.4006 189.171 31.6639 184.374C23.9273 179.576 18.7067 182.914 18.7067 191.941C18.808 196.731 20.0367 201.416 22.2782 205.558C24.5197 209.7 27.701 213.165 31.5256 215.631C33.6022 217.005 35.9603 217.812 38.3942 217.982L39.5138 222.644C36.6799 222.398 33.9413 221.43 31.5256 219.82C21.4616 213.563 14.8069 200.968 14.8069 189.563C14.8069 178.158 21.5245 174.022 31.6639 180.32C41.4637 186.387 48.1436 198.536 48.1436 209.374ZM35.7147 202.874C35.7391 201.16 35.3499 199.469 34.5849 197.965C33.8199 196.461 32.7051 195.196 31.3494 194.293C28.8335 192.712 27.0345 193.82 27.0345 197.495C27.0022 199.212 27.3823 200.908 28.1381 202.421C28.8939 203.933 29.9999 205.211 31.3494 206.131C33.8654 207.658 35.7147 206.671 35.7147 202.874Z" fill="#5B4040"/>
<g opacity="0.9">
<path opacity="0.9" d="M48.1436 209.374C48.1436 217.117 45.288 219.752 41.0108 217.09C39.8309 216.368 38.7991 215.398 37.9776 214.237C37.1561 213.075 36.5618 211.748 36.2304 210.333C34.9725 211.995 33.0226 212.104 30.2802 210.401C25.7765 207.604 22.229 200.941 22.229 194.468C22.229 187.995 25.7388 185.766 30.2802 188.576C32.5846 190.035 34.446 192.18 35.6392 194.752V192.198L40.3818 195.144V209.144C40.3112 209.881 40.4298 210.624 40.7247 211.294C41.0197 211.963 41.4798 212.533 42.0549 212.941C43.6526 213.941 44.6338 212.252 44.6338 207.239C44.6338 198.468 39.4006 189.171 31.6639 184.374C23.9273 179.576 18.7067 182.914 18.7067 191.941C18.808 196.731 20.0367 201.416 22.2782 205.558C24.5197 209.7 27.701 213.165 31.5256 215.631C33.6022 217.005 35.9603 217.812 38.3942 217.982L39.5138 222.644C36.6799 222.398 33.9413 221.43 31.5256 219.82C21.4616 213.563 14.8069 200.968 14.8069 189.563C14.8069 178.158 21.5245 174.022 31.6639 180.32C41.4637 186.387 48.1436 198.536 48.1436 209.374ZM35.7147 202.874C35.7391 201.16 35.3499 199.469 34.5849 197.965C33.8199 196.461 32.7051 195.196 31.3494 194.293C28.8335 192.712 27.0345 193.82 27.0345 197.495C27.0022 199.212 27.3823 200.908 28.1381 202.421C28.8939 203.933 29.9999 205.211 31.3494 206.131C33.8654 207.658 35.7147 206.671 35.7147 202.874Z" fill="white"/>
</g>
<path d="M67.4533 278.631L17.4231 247.55C16.8482 247.119 16.1812 246.851 15.4841 246.77C14.787 246.69 14.0823 246.8 13.4353 247.09V247.09C13.2985 247.158 13.168 247.24 13.0453 247.334L2.16374 254.185H2.23922C0.86801 255.023 0 256.969 0 259.739V319.496C0 324.564 2.85564 330.428 6.39058 332.618L56.4208 363.699C57.0542 364.195 57.8103 364.479 58.5937 364.516C59.3772 364.552 60.153 364.338 60.8237 363.901L60.7357 363.983L71.5418 357.158C72.9507 356.361 73.8439 354.456 73.8439 351.55V291.739C73.8439 286.685 71.0386 280.82 67.4533 278.631Z" fill="#5B4040"/>
<path d="M72.0567 284.293C71.048 281.978 69.4522 280.016 67.4525 278.631L17.4223 247.55C16.8473 247.119 16.1804 246.851 15.4832 246.77C14.7861 246.69 14.0814 246.8 13.4344 247.09V247.09C13.2977 247.158 13.1671 247.24 13.0445 247.334L2.16284 254.185C2.82697 253.816 3.57297 253.651 4.31873 253.708C5.0645 253.766 5.78112 254.043 6.38969 254.509L56.4199 285.59C58.4882 287.043 60.1253 289.102 61.1374 291.523V291.523L72.0567 284.293Z" fill="#5B4040"/>
<path d="M62.8118 358.456C62.8118 361.158 62.0067 363.037 60.7361 363.929L71.5422 357.104C72.9512 356.307 73.8443 354.401 73.8443 351.496V291.739C73.791 289.142 73.1797 286.594 72.058 284.293L61.1386 291.509C62.1868 293.742 62.7584 296.198 62.8118 298.699V358.456Z" fill="#5B4040"/>
<path opacity="0.3" d="M72.0567 284.293C71.048 281.978 69.4522 280.016 67.4525 278.631L17.4223 247.55C16.8473 247.119 16.1804 246.851 15.4832 246.77C14.7861 246.69 14.0814 246.8 13.4344 247.09V247.09C13.2977 247.158 13.1671 247.24 13.0445 247.334L2.16284 254.185C2.82697 253.816 3.57297 253.651 4.31873 253.708C5.0645 253.766 5.78112 254.043 6.38969 254.509L56.4199 285.59C58.4882 287.043 60.1253 289.102 61.1374 291.523V291.523L72.0567 284.293Z" fill="black"/>
<path opacity="0.6" d="M62.8118 358.456C62.8118 361.158 62.0067 363.037 60.7361 363.929L71.5422 357.104C72.9512 356.307 73.8443 354.401 73.8443 351.496V291.739C73.791 289.142 73.1797 286.594 72.058 284.293L61.1386 291.509C62.1868 293.742 62.7584 296.198 62.8118 298.699V358.456Z" fill="black"/>
<path d="M25.8144 305.347L13.7502 284.293V312.82L25.8144 305.347Z" fill="#5B4040"/>
<path d="M37.0225 311.415L49.0614 333.807V305.32L37.0225 311.415Z" fill="#5B4040"/>
<path d="M15.5718 283.334L27.963 304.955C28.0154 305.003 28.0619 305.057 28.1013 305.118C28.1123 305.171 28.1123 305.226 28.1013 305.28L31.7873 311.712L34.9071 310.131C34.9557 310.074 35.0106 310.025 35.0706 309.982C35.1936 309.905 35.3312 309.859 35.4732 309.847L48.0531 303.509L15.5718 283.334Z" fill="#5B4040"/>
<path d="M35.1984 312.334L31.827 314.036C31.6971 314.101 31.5552 314.134 31.4119 314.131C31.2383 314.133 31.0671 314.087 30.915 313.997C30.7629 313.907 30.635 313.776 30.5439 313.618L26.858 307.185L14.7561 314.699L47.3255 334.888L35.1984 312.334Z" fill="#5B4040"/>
<g opacity="0.9">
<path opacity="0.9" d="M25.8144 305.347L13.7502 284.293V312.82L25.8144 305.347Z" fill="white"/>
<path opacity="0.9" d="M37.0225 311.415L49.0614 333.807V305.321L37.0225 311.415Z" fill="white"/>
<path opacity="0.9" d="M15.5718 283.334L27.963 304.955C28.0154 305.003 28.0619 305.057 28.1013 305.118C28.1123 305.171 28.1123 305.226 28.1013 305.28L31.7873 311.712L34.9071 310.131C34.9557 310.074 35.0106 310.025 35.0706 309.982C35.1936 309.905 35.3312 309.859 35.4732 309.847L48.0531 303.509L15.5718 283.334Z" fill="white"/>
<path opacity="0.9" d="M35.1984 312.334L31.827 314.036C31.6971 314.101 31.5552 314.134 31.4119 314.131C31.2383 314.133 31.0671 314.087 30.915 313.997C30.7629 313.907 30.635 313.776 30.5439 313.618L26.858 307.185L14.7561 314.699L47.3255 334.888L35.1984 312.334Z" fill="white"/>
</g>
<path d="M67.4533 65.7655L17.4231 34.6844C16.8482 34.2533 16.1812 33.9852 15.4841 33.9049C14.787 33.8246 14.0823 33.9347 13.4353 34.2249V34.2249C13.2985 34.2928 13.168 34.3742 13.0453 34.4682L2.16374 41.3195H2.23922C0.86801 42.1439 0 44.1033 0 46.8736V106.63C0 111.685 2.85564 117.563 6.39058 119.752L56.4208 150.833C57.0542 151.33 57.8103 151.614 58.5937 151.65C59.3772 151.686 60.153 151.472 60.8237 151.036L60.7357 151.104L71.5418 144.347C72.9507 143.549 73.8439 141.644 73.8439 138.739V78.8331C73.8439 73.7791 71.0386 67.9007 67.4533 65.7655Z" fill="#5B4040"/>
<path d="M72.0567 71.3872C71.0482 69.0686 69.4527 67.1017 67.4525 65.7115L17.4223 34.6844C16.8473 34.2533 16.1804 33.9852 15.4832 33.9049C14.7861 33.8246 14.0814 33.9347 13.4344 34.2249V34.2249C13.2977 34.2928 13.1671 34.3742 13.0445 34.4682L2.16284 41.3195C2.82697 40.9506 3.57297 40.7857 4.31873 40.8429C5.0645 40.9001 5.78112 41.1773 6.38969 41.6439L56.4199 72.725C58.4882 74.1772 60.1253 76.2361 61.1374 78.6574V78.6574L72.0567 71.3872Z" fill="#5B4040"/>
<path d="M62.8118 145.496C62.8118 148.198 62.0067 150.077 60.7361 150.901L71.5422 144.144C72.9512 143.347 73.8443 141.442 73.8443 138.536V78.8334C73.791 76.2367 73.1797 73.6884 72.058 71.3875L61.1386 78.6037C62.1868 80.8367 62.7584 83.2927 62.8118 85.7929V145.496Z" fill="#5B4040"/>
<path opacity="0.3" d="M72.0567 71.3872C71.0482 69.0686 69.4527 67.1017 67.4525 65.7115L17.4223 34.6844C16.8473 34.2533 16.1804 33.9852 15.4832 33.9049C14.7861 33.8246 14.0814 33.9347 13.4344 34.2249V34.2249C13.2977 34.2928 13.1671 34.3742 13.0445 34.4682L2.16284 41.3195C2.82697 40.9506 3.57297 40.7857 4.31873 40.8429C5.0645 40.9001 5.78112 41.1773 6.38969 41.6439L56.4199 72.725C58.4882 74.1772 60.1253 76.2361 61.1374 78.6574V78.6574L72.0567 71.3872Z" fill="black"/>
<path opacity="0.6" d="M62.8118 145.496C62.8118 148.198 62.0067 150.077 60.7361 150.901L71.5422 144.144C72.9512 143.347 73.8443 141.442 73.8443 138.536V78.8334C73.791 76.2367 73.1797 73.6884 72.058 71.3875L61.1386 78.6037C62.1868 80.8367 62.7584 83.2927 62.8118 85.7929V145.496Z" fill="black"/>
<path d="M46.4454 119.82C44.5207 116.414 42.5834 113.063 40.6587 109.631C40.3534 108.98 39.9266 108.405 39.405 107.94C38.8834 107.475 38.2781 107.13 37.6269 106.928C36.696 106.725 35.7651 106.496 34.809 106.198C34.4686 106.046 34.1821 105.781 33.9914 105.441C30.8418 99.6511 28.338 93.4825 26.5315 87.063C26.493 86.9258 26.4821 86.7814 26.4995 86.6393C26.5168 86.4972 26.562 86.3607 26.6321 86.2387C27.2234 85.6036 27.8901 85.0225 28.4939 84.4549C29.0978 83.8873 29.4123 82.5765 28.972 80.8738C28.0411 77.2657 27.1479 73.6576 26.217 70.063C26.0368 69.0416 25.6095 68.0893 24.9779 67.3017C24.3463 66.5141 23.5328 65.9191 22.6191 65.5765C20.5905 64.9706 18.4368 65.0556 16.455 65.8197C15.6876 66.1306 15.285 66.8738 15.2725 68.1576C15.5995 70.6306 15.8134 73.0765 16.2537 75.59C19.3567 93.7162 26.8208 110.383 38.6459 125.59C38.9546 126.094 39.3694 126.514 39.8567 126.814C40.344 127.115 40.8902 127.288 41.4512 127.32C43.409 127.27 45.2898 126.491 46.7725 125.117C47.8921 124.036 47.7789 122.117 46.4454 119.82Z" fill="#5B4040"/>
<path d="M46.2938 101.401C46.0306 97.5137 45.0333 93.725 43.3627 90.2655C42.1153 87.563 40.528 85.0575 38.6452 82.8195C38.1546 82.2249 37.7395 82.0358 37.4879 82.4817C37.2363 82.9276 37.4879 83.5628 37.9659 84.1439L38.4565 84.752C41.9336 89.0635 44.1249 94.3976 44.7465 100.063C44.7403 100.476 44.7783 100.889 44.8597 101.293C45.0177 101.757 45.2714 102.178 45.6019 102.522C45.8661 102.725 46.168 102.522 46.3818 102.522C46.3064 101.968 46.3189 101.684 46.2938 101.401Z" fill="#5B4040"/>
<path d="M34.896 90.3059C36.4757 92.1724 37.4356 94.5484 37.6258 97.0627C37.7087 97.445 37.8399 97.8133 38.0158 98.1573C38.7832 98.833 39.1606 98.6032 39.1606 97.7519C38.8916 94.5281 37.6504 91.4867 35.6256 89.0897C35.1476 88.5627 34.7576 88.4005 34.5312 88.8465C34.4497 89.1011 34.4409 89.3761 34.5059 89.6361C34.5709 89.8961 34.7068 90.1294 34.896 90.3059Z" fill="#5B4040"/>
<g opacity="0.9">
<path opacity="0.9" d="M46.443 119.819C44.5183 116.414 42.581 113.063 40.6563 109.63C40.351 108.98 39.9242 108.404 39.4026 107.939C38.8809 107.474 38.2756 107.13 37.6245 106.927C36.6936 106.725 35.7627 106.495 34.8066 106.198C34.4661 106.045 34.1797 105.78 33.9889 105.441C30.8394 99.6506 28.3355 93.482 26.529 87.0625C26.4906 86.9253 26.4797 86.7809 26.497 86.6388C26.5144 86.4967 26.5596 86.3602 26.6297 86.2382C27.2209 85.6031 27.8877 85.022 28.4915 84.4544C29.0953 83.8869 29.4098 82.576 28.9695 80.8733C28.0386 77.2652 27.1454 73.6571 26.2145 70.0625C26.0344 69.0412 25.607 68.0888 24.9755 67.3012C24.3439 66.5136 23.5303 65.9186 22.6167 65.576C20.588 64.9701 18.4344 65.0551 16.4525 65.8193C15.6852 66.1301 15.2826 66.8733 15.27 68.1571C15.5971 70.6301 15.811 73.076 16.2513 75.5895C19.3543 93.7157 26.8184 110.382 38.6435 125.59C38.9522 126.094 39.3669 126.513 39.8542 126.814C40.3415 127.114 40.8877 127.287 41.4488 127.319C43.4065 127.269 45.2874 126.491 46.7701 125.117C47.8897 124.036 47.7765 122.117 46.443 119.819Z" fill="white"/>
<path opacity="0.9" d="M46.2913 101.401C46.0282 97.5137 45.0309 93.725 43.3602 90.2655C42.1129 87.563 40.5255 85.0575 38.6428 82.8195C38.1522 82.2249 37.737 82.0358 37.4854 82.4817C37.2338 82.9276 37.4854 83.5628 37.9635 84.1439L38.4541 84.752C41.9311 89.0635 44.1225 94.3976 44.744 100.063C44.7379 100.476 44.7759 100.889 44.8572 101.293C45.0152 101.757 45.269 102.178 45.5995 102.522C45.8636 102.725 46.1655 102.522 46.3794 102.522C46.3039 101.968 46.3165 101.684 46.2913 101.401Z" fill="white"/>
<path opacity="0.9" d="M34.8935 90.3062C36.4733 92.1727 37.4332 94.5486 37.6234 97.0629C37.7062 97.4452 37.8374 97.8135 38.0134 98.1575C38.7807 98.8332 39.1581 98.6035 39.1581 97.7521C38.8892 94.5283 37.648 91.4869 35.6232 89.0899C35.1451 88.5629 34.7552 88.4008 34.5287 88.8467C34.4473 89.1013 34.4385 89.3763 34.5035 89.6363C34.5685 89.8964 34.7043 90.1296 34.8935 90.3062Z" fill="white"/>
</g>
<path d="M324.143 29.9278L335.931 37.1305V32.644C335.931 32.3332 335.931 32.0089 335.931 31.6981C335.931 31.3872 335.931 31.0899 335.931 30.7926V30.6305C336.358 24.698 340.547 22.4142 345.655 25.5899C347.967 27.1177 349.949 29.1588 351.467 31.5764C352.612 23.4683 358.738 20.6034 366.148 25.1845C374.375 30.2926 381.042 42.7521 381.042 52.9143V62.5089C381.03 63.2764 381.207 64.0337 381.553 64.705C381.9 65.3762 382.405 65.9377 383.017 66.3333L389.961 70.6981C391.46 71.6526 392.702 73.0087 393.567 74.6337C394.431 76.2587 394.888 78.0969 394.893 79.9684C394.893 80.7449 394.703 81.5077 394.341 82.18C393.979 82.8524 393.459 83.4105 392.833 83.7983C392.207 84.186 391.497 84.3897 390.774 84.3887C390.051 84.3877 389.341 84.1822 388.716 83.7928L324.319 43.8062C322.611 42.7404 321.192 41.213 320.203 39.3758C319.215 37.5385 318.691 35.4553 318.684 33.3332C318.683 32.6463 318.85 31.9713 319.169 31.3758C319.488 30.7803 319.947 30.2853 320.5 29.9404C321.053 29.5955 321.681 29.4127 322.32 29.4105C322.959 29.4083 323.588 29.5867 324.143 29.9278V29.9278Z" fill="#E6E6E6"/>
<path d="M414.001 28.0493L422.568 33.3331V30.0358C422.568 29.806 422.568 29.5763 422.568 29.3466C422.568 29.1168 422.568 28.9006 422.568 28.6844V28.6033C422.883 24.2925 425.927 22.6303 429.638 24.9412C431.319 26.0473 432.76 27.5262 433.865 29.279C434.708 23.4141 439.161 21.2925 444.545 24.6304C450.533 28.3466 455.377 37.3736 455.377 44.7926V51.7791C455.381 52.3267 455.518 52.8638 455.774 53.3375C456.03 53.8113 456.396 54.2056 456.836 54.4818L461.868 57.6574C462.963 58.3492 463.87 59.3369 464.499 60.5224C465.128 61.7079 465.457 63.0497 465.453 64.4142C465.452 64.9731 465.316 65.5221 465.058 66.0071C464.799 66.4921 464.427 66.8964 463.979 67.1802C463.531 67.4639 463.022 67.6172 462.501 67.6251C461.981 67.633 461.468 67.4951 461.013 67.225L414.127 38.1439C412.885 37.3718 411.853 36.2626 411.136 34.9273C410.418 33.592 410.04 32.0776 410.039 30.5358C410.038 30.0368 410.159 29.5462 410.39 29.1132C410.621 28.6802 410.953 28.3198 411.354 28.0681C411.755 27.8164 412.211 27.6822 412.676 27.6789C413.14 27.6756 413.597 27.8033 414.001 28.0493V28.0493Z" fill="#E6E6E6"/>
</svg>
